<svg version="1.1" viewBox="0.0 0.0 960.0 720.0" fill="none" stroke="none" stroke-linecap="square" stroke-miterlimit="10" xmlns:xlink="http://www.w3.org/1999/xlink" xmlns="http://www.w3.org/2000/svg"><clipPath id="p.0"><path d="m0 0l960.0 0l0 720.0l-960.0 0l0 -720.0z" clip-rule="nonzero"/></clipPath><g clip-path="url(#p.0)"><path fill="#000000" fill-opacity="0.0" d="m0 0l960.0 0l0 720.0l-960.0 0z" fill-rule="evenodd"/><path fill="#a64d79" d="m346.01764 91.20062c11.3333435 10.0 67.16666 13.666664 79.0 32.0c11.8333435 18.333328 -19.5 58.5 -8.0 78.0c11.5 19.5 60.666656 36.0 77.0 39.0c16.333344 3.0 28.166687 -12.5 21.0 -21.0c-7.1666565 -8.5 -56.333344 -9.833328 -64.0 -30.0c-7.6666565 -20.166672 33.666656 -70.0 18.0 -91.0c-15.6666565 -21.0 -91.5 -33.833336 -112.0 -35.0c-20.5 -1.1666641 -22.333344 18.0 -11.0 28.0z" fill-rule="evenodd"/><path stroke="#000000" stroke-width="3.0" stroke-linejoin="round" stroke-linecap="butt" d="m346.01764 91.20062c11.3333435 10.0 67.16666 13.666664 79.0 32.0c11.8333435 18.333328 -19.5 58.5 -8.0 78.0c11.5 19.5 60.666656 36.0 77.0 39.0c16.333344 3.0 28.166687 -12.5 21.0 -21.0c-7.1666565 -8.5 -56.333344 -9.833328 -64.0 -30.0c-7.6666565 -20.166672 33.666656 -70.0 18.0 -91.0c-15.6666565 -21.0 -91.5 -33.833336 -112.0 -35.0c-20.5 -1.1666641 -22.333344 18.0 -11.0 28.0z" fill-rule="evenodd"/><path fill="#a64d79" d="m578.8088 265.49908c3.9726562 -14.583527 -17.37616 -66.30646 -6.145874 -85.01619c11.230286 -18.709732 61.10327 -8.316757 73.52759 -27.242203c12.424377 -18.925446 5.5342407 -70.32907 1.0184937 -86.3105c-4.515686 -15.981434 -23.6474 -19.760517 -28.11267 -9.578102c-4.465271 10.182419 16.035461 54.892982 1.321167 70.6726c-14.714233 15.779617 -77.67505 0.67852783 -89.60675 24.005096c-11.931702 23.326569 10.016907 97.042755 18.016602 115.954315c7.999634 18.91153 26.00885 12.098511 29.981445 -2.4850159z" fill-rule="evenodd"/><path stroke="#000000" stroke-width="3.0" stroke-linejoin="round" stroke-linecap="butt" d="m578.8088 265.49908c3.9726562 -14.583527 -17.37616 -66.30646 -6.145874 -85.01619c11.230286 -18.709732 61.10327 -8.316757 73.52759 -27.242203c12.424377 -18.925446 5.5342407 -70.32907 1.0184937 -86.3105c-4.515686 -15.981434 -23.6474 -19.760517 -28.11267 -9.578102c-4.465271 10.182419 16.035461 54.892982 1.321167 70.6726c-14.714233 15.779617 -77.67505 0.67852783 -89.60675 24.005096c-11.931702 23.326569 10.016907 97.042755 18.016602 115.954315c7.999634 18.91153 26.00885 12.098511 29.981445 -2.4850159z" fill-rule="evenodd"/><path fill="#a64d79" d="m209.13837 162.49721c11.3333435 10.0 67.16666 13.666672 79.0 32.0c11.8333435 18.333344 -19.5 58.5 -8.0 78.000015c11.5 19.5 60.666656 36.0 77.0 39.0c16.333344 3.0 28.166656 -12.5 21.0 -21.0c-7.1666565 -8.5 -56.333344 -9.8333435 -64.0 -30.0c-7.6666565 -20.166672 33.666656 -70.000015 18.0 -91.000015c-15.6666565 -21.0 -91.5 -33.83333 -112.0 -35.0c-20.5 -1.1666565 -22.333328 18.0 -11.0 28.0z" fill-rule="evenodd"/><path stroke="#000000" stroke-width="3.0" stroke-linejoin="round" stroke-linecap="butt" d="m209.13837 162.49721c11.3333435 10.0 67.16666 13.666672 79.0 32.0c11.8333435 18.333344 -19.5 58.5 -8.0 78.000015c11.5 19.5 60.666656 36.0 77.0 39.0c16.333344 3.0 28.166656 -12.5 21.0 -21.0c-7.1666565 -8.5 -56.333344 -9.8333435 -64.0 -30.0c-7.6666565 -20.166672 33.666656 -70.000015 18.0 -91.000015c-15.6666565 -21.0 -91.5 -33.83333 -112.0 -35.0c-20.5 -1.1666565 -22.333328 18.0 -11.0 28.0z" fill-rule="evenodd"/><path fill="#a64d79" d="m339.49823 313.38797c-13.986938 5.7272034 -42.019073 54.151154 -63.6976 56.63321c-21.678543 2.4820557 -43.797012 -43.407013 -66.37361 -41.740814c-22.5766 1.6661987 -59.157867 38.426422 -69.086 51.738007c-9.928131 13.311615 -1.2784729 30.788605 9.517197 28.131622c10.79567 -2.657013 33.78154 -46.13907 55.256805 -44.07361c21.475266 2.0654602 47.826935 61.20279 73.59479 56.4664c25.767883 -4.7364197 70.88101 -67.025665 81.01242 -84.884796c10.131378 -17.85913 -6.237091 -27.997223 -20.223999 -22.27002z" fill-rule="evenodd"/><path stroke="#000000" stroke-width="3.0" stroke-linejoin="round" stroke-linecap="butt" d="m339.49823 313.38797c-13.986938 5.7272034 -42.019073 54.151154 -63.6976 56.63321c-21.678543 2.4820557 -43.797012 -43.407013 -66.37361 -41.740814c-22.5766 1.6661987 -59.157867 38.426422 -69.086 51.738007c-9.928131 13.311615 -1.2784729 30.788605 9.517197 28.131622c10.79567 -2.657013 33.78154 -46.13907 55.256805 -44.07361c21.475266 2.0654602 47.826935 61.20279 73.59479 56.4664c25.767883 -4.7364197 70.88101 -67.025665 81.01242 -84.884796c10.131378 -17.85913 -6.237091 -27.997223 -20.223999 -22.27002z" fill-rule="evenodd"/><path fill="#a64d79" d="m806.4356 286.93393c-15.076904 -1.0558777 -61.647644 29.95639 -82.185 22.585999c-20.537354 -7.370392 -20.057678 -58.3089 -41.039185 -66.80841c-20.981506 -8.499496 -70.05505 8.269867 -84.84979 15.811401c-14.794739 7.5415344 -14.774963 27.041565 -3.9186401 29.437805c10.856384 2.3962402 50.71466 -26.418488 69.05682 -15.060394c18.342102 11.358093 15.793945 76.049866 40.99597 83.208984c25.202087 7.159149 93.22644 -28.724945 110.21643 -40.25418c16.98999 -11.529236 6.800354 -27.865356 -8.276611 -28.921204z" fill-rule="evenodd"/><path stroke="#000000" stroke-width="3.0" stroke-linejoin="round" stroke-linecap="butt" d="m806.4356 286.93393c-15.076904 -1.0558777 -61.647644 29.95639 -82.185 22.585999c-20.537354 -7.370392 -20.057678 -58.3089 -41.039185 -66.80841c-20.981506 -8.499496 -70.05505 8.269867 -84.84979 15.811401c-14.794739 7.5415344 -14.774963 27.041565 -3.9186401 29.437805c10.856384 2.3962402 50.71466 -26.418488 69.05682 -15.060394c18.342102 11.358093 15.793945 76.049866 40.99597 83.208984c25.202087 7.159149 93.22644 -28.724945 110.21643 -40.25418c16.98999 -11.529236 6.800354 -27.865356 -8.276611 -28.921204z" fill-rule="evenodd"/><path fill="#a64d79" d="m358.1033 400.47934c-11.557007 9.739807 -23.391205 64.42557 -43.26419 73.434906c-19.873016 9.009369 -54.99585 -27.886932 -75.9738 -19.378784c-20.977951 8.508148 -44.525604 54.71338 -49.893906 70.42767c-5.3683014 15.714294 8.223251 29.697144 17.684097 23.858093c9.460861 -5.8390503 18.007156 -54.273773 39.08101 -58.892365c21.073853 -4.618622 64.287994 43.58969 87.36209 31.180817c23.074097 -12.408936 46.91507 -85.529175 51.08252 -105.63422c4.16745 -20.105072 -14.520813 -24.7359 -26.07782 -14.996124z" fill-rule="evenodd"/><path stroke="#000000" stroke-width="3.0" stroke-linejoin="round" stroke-linecap="butt" d="m358.1033 400.47934c-11.557007 9.739807 -23.391205 64.42557 -43.26419 73.434906c-19.873016 9.009369 -54.99585 -27.886932 -75.9738 -19.378784c-20.977951 8.508148 -44.525604 54.71338 -49.893906 70.42767c-5.3683014 15.714294 8.223251 29.697144 17.684097 23.858093c9.460861 -5.8390503 18.007156 -54.273773 39.08101 -58.892365c21.073853 -4.618622 64.287994 43.58969 87.36209 31.180817c23.074097 -12.408936 46.91507 -85.529175 51.08252 -105.63422c4.16745 -20.105072 -14.520813 -24.7359 -26.07782 -14.996124z" fill-rule="evenodd"/><path fill="#a64d79" d="m593.2302 399.49722c11.333313 10.0 67.16669 13.6666565 79.0 32.0c11.833313 18.333313 -19.5 58.5 -8.0 78.0c11.5 19.49997 60.666687 35.99997 77.0 38.99997c16.333313 3.0 28.166687 -12.5 21.0 -21.0c-7.166687 -8.5 -56.333313 -9.833313 -64.0 -29.99997c-7.666687 -20.166687 33.666687 -70.0 18.0 -91.0c-15.666687 -21.0 -91.5 -33.833344 -112.0 -35.0c-20.5 -1.166687 -22.333313 18.0 -11.0 28.0z" fill-rule="evenodd"/><path stroke="#000000" stroke-width="3.0" stroke-linejoin="round" stroke-linecap="butt" d="m593.2302 399.49722c11.333313 10.0 67.16669 13.6666565 79.0 32.0c11.833313 18.333313 -19.5 58.5 -8.0 78.0c11.5 19.49997 60.666687 35.99997 77.0 38.99997c16.333313 3.0 28.166687 -12.5 21.0 -21.0c-7.166687 -8.5 -56.333313 -9.833313 -64.0 -29.99997c-7.666687 -20.166687 33.666687 -70.0 18.0 -91.0c-15.666687 -21.0 -91.5 -33.833344 -112.0 -35.0c-20.5 -1.166687 -22.333313 18.0 -11.0 28.0z" fill-rule="evenodd"/><path fill="#a64d79" d="m331.38583 334.02887l0 0c0 -78.49402 66.536835 -142.12598 148.61417 -142.12598l0 0c39.414917 0 77.215515 14.973938 105.08606 41.62773c27.870605 26.653793 43.528137 62.804092 43.528137 100.498245l0 0c0 78.49402 -66.536865 142.12598 -148.6142 142.12598l0 0c-82.07733 0 -148.61417 -63.631958 -148.61417 -142.12598z" fill-rule="evenodd"/><path stroke="#000000" stroke-width="3.0" stroke-linejoin="round" stroke-linecap="butt" d="m331.38583 334.02887l0 0c0 -78.49402 66.536835 -142.12598 148.61417 -142.12598l0 0c39.414917 0 77.215515 14.973938 105.08606 41.62773c27.870605 26.653793 43.528137 62.804092 43.528137 100.498245l0 0c0 78.49402 -66.536865 142.12598 -148.6142 142.12598l0 0c-82.07733 0 -148.61417 -63.631958 -148.61417 -142.12598z" fill-rule="evenodd"/><path fill="#ffffff" d="m394.99213 288.57742l0 0c0 -29.484161 38.059326 -53.38582 85.00787 -53.38582l0 0c46.948547 0 85.00787 23.901657 85.00787 53.38582l0 0c0 29.484192 -38.059326 53.385834 -85.00787 53.385834l0 0c-46.948547 0 -85.00787 -23.901642 -85.00787 -53.385834z" fill-rule="evenodd"/><path stroke="#000000" stroke-width="3.0" stroke-linejoin="round" stroke-linecap="butt" d="m394.99213 288.57742l0 0c0 -29.484161 38.059326 -53.38582 85.00787 -53.38582l0 0c46.948547 0 85.00787 23.901657 85.00787 53.38582l0 0c0 29.484192 -38.059326 53.385834 -85.00787 53.385834l0 0c-46.948547 0 -85.00787 -23.901642 -85.00787 -53.385834z" fill-rule="evenodd"/><path fill="#ff9900" d="m461.1811 288.57742l0 0c0 -29.484161 8.425507 -53.38582 18.818909 -53.38582l0 0c4.991089 0 9.7777405 5.6245575 13.306976 15.636337c3.5292358 10.01178 5.5119324 23.590698 5.5119324 37.74948l0 0c0 29.484192 -8.425507 53.385834 -18.818909 53.385834l0 0c-4.991089 0 -9.7777405 -5.6245728 -13.306976 -15.636353c-3.5292358 -10.01178 -5.5119324 -23.590668 -5.5119324 -37.74948z" fill-rule="evenodd"/><path stroke="#000000" stroke-width="1.0" stroke-linejoin="round" stroke-linecap="butt" d="m461.1811 288.57742l0 0c0 -29.484161 8.425507 -53.38582 18.818909 -53.38582l0 0c4.991089 0 9.7777405 5.6245575 13.306976 15.636337c3.5292358 10.01178 5.5119324 23.590698 5.5119324 37.74948l0 0c0 29.484192 -8.425507 53.385834 -18.818909 53.385834l0 0c-4.991089 0 -9.7777405 -5.6245728 -13.306976 -15.636353c-3.5292358 -10.01178 -5.5119324 -23.590668 -5.5119324 -37.74948z" fill-rule="evenodd"/><path fill="#000000" d="m469.1811 288.57742l0 0c0 -22.308807 4.843811 -40.393692 10.818909 -40.393692l0 0c2.8693542 0 5.6211853 4.2557526 7.650116 11.831039c2.0289307 7.575287 3.1687927 17.849579 3.1687927 28.562653l0 0c0 22.308838 -4.843811 40.393707 -10.818909 40.393707l0 0c-2.8693542 0 -5.6211853 -4.255768 -7.650116 -11.831055c-2.0289307 -7.575287 -3.1687927 -17.849579 -3.1687927 -28.562653z" fill-rule="evenodd"/><path stroke="#000000" stroke-width="1.0" stroke-linejoin="round" stroke-linecap="butt" d="m469.1811 288.57742l0 0c0 -22.308807 4.843811 -40.393692 10.818909 -40.393692l0 0c2.8693542 0 5.6211853 4.2557526 7.650116 11.831039c2.0289307 7.575287 3.1687927 17.849579 3.1687927 28.562653l0 0c0 22.308838 -4.843811 40.393707 -10.818909 40.393707l0 0c-2.8693542 0 -5.6211853 -4.255768 -7.650116 -11.831055c-2.0289307 -7.575287 -3.1687927 -17.849579 -3.1687927 -28.562653z" fill-rule="evenodd"/><path fill="#000000" d="m565.8583 360.0l0 0c0 51.001526 -38.440063 92.346466 -85.85828 92.346466c-47.418213 0 -85.85828 -41.34494 -85.85828 -92.346466l0 0c20.268402 29.066711 52.077637 46.173218 85.85828 46.173218c33.78064 0 65.589905 -17.106506 85.85828 -46.173218z" fill-rule="evenodd"/><path stroke="#000000" stroke-width="3.0" stroke-linejoin="round" stroke-linecap="butt" d="m565.8583 360.0l0 0c0 51.001526 -38.440063 92.346466 -85.85828 92.346466c-47.418213 0 -85.85828 -41.34494 -85.85828 -92.346466l0 0c20.268402 29.066711 52.077637 46.173218 85.85828 46.173218c33.78064 0 65.589905 -17.106506 85.85828 -46.173218z" fill-rule="evenodd"/><path fill="#ffffff" d="m433.02362 444.34647l12.992126 -37.984253l12.992126 37.984253z" fill-rule="evenodd"/><path stroke="#000000" stroke-width="2.0" stroke-linejoin="round" stroke-linecap="butt" d="m433.02362 444.34647l12.992126 -37.984253l12.992126 37.984253z" fill-rule="evenodd"/><path fill="#ffffff" d="m467.00787 454.84778l12.992126 -37.984253l12.992126 37.984253z" fill-rule="evenodd"/><path stroke="#000000" stroke-width="2.0" stroke-linejoin="round" stroke-linecap="butt" d="m467.00787 454.84778l12.992126 -37.984253l12.992126 37.984253z" fill-rule="evenodd"/><path fill="#ffffff" d="m500.99213 444.34647l12.992126 -37.984253l12.992126 37.984253z" fill-rule="evenodd"/><path stroke="#000000" stroke-width="2.0" stroke-linejoin="round" stroke-linecap="butt" d="m500.99213 444.34647l12.992126 -37.984253l12.992126 37.984253z" fill-rule="evenodd"/><path fill="#ffffff" d="m477.99213 403.86353l-12.992126 37.984253l-12.992126 -37.984253z" fill-rule="evenodd"/><path stroke="#000000" stroke-width="2.0" stroke-linejoin="round" stroke-linecap="butt" d="m477.99213 403.86353l-12.992126 37.984253l-12.992126 -37.984253z" fill-rule="evenodd"/><path fill="#ffffff" d="m508.98425 403.86353l-12.992126 37.984253l-12.992126 -37.984253z" fill-rule="evenodd"/><path stroke="#000000" stroke-width="2.0" stroke-linejoin="round" stroke-linecap="butt" d="m508.98425 403.86353l-12.992126 37.984253l-12.992126 -37.984253z" fill-rule="evenodd"/><path fill="#ffffff" d="m544.98425 396.3622l-12.992126 37.984253l-12.992126 -37.984253z" fill-rule="evenodd"/><path stroke="#000000" stroke-width="2.0" stroke-linejoin="round" stroke-linecap="butt" d="m544.98425 396.3622l-12.992126 37.984253l-12.992126 -37.984253z" fill-rule="evenodd"/><path fill="#ffffff" d="m441.0 396.3622l-12.992126 37.984253l-12.992126 -37.984253z" fill-rule="evenodd"/><path stroke="#000000" stroke-width="2.0" stroke-linejoin="round" stroke-linecap="butt" d="m441.0 396.3622l-12.992126 37.984253l-12.992126 -37.984253z" fill-rule="evenodd"/><path fill="#ffffff" d="m323.0 76.00787l0 0c0 -13.811466 11.414978 -25.007874 25.496063 -25.007874l0 0c6.761963 0 13.247009 2.6347504 18.028442 7.3246384c4.781433 4.689884 7.467621 11.050735 7.467621 17.683235l0 0c0 13.81147 -11.414978 25.007874 -25.496063 25.007874l0 0c-14.081085 0 -25.496063 -11.1964035 -25.496063 -25.007874z" fill-rule="evenodd"/><path stroke="#000000" stroke-width="3.0" stroke-linejoin="round" stroke-linecap="butt" d="m323.0 76.00787l0 0c0 -13.811466 11.414978 -25.007874 25.496063 -25.007874l0 0c6.761963 0 13.247009 2.6347504 18.028442 7.3246384c4.781433 4.689884 7.467621 11.050735 7.467621 17.683235l0 0c0 13.81147 -11.414978 25.007874 -25.496063 25.007874l0 0c-14.081085 0 -25.496063 -11.1964035 -25.496063 -25.007874z" fill-rule="evenodd"/><path fill="#ff9900" d="m340.59055 76.00787l0 0c0 -13.811466 3.5394287 -25.007874 7.9055176 -25.007874l0 0c2.0966797 0 4.107483 2.6347504 5.590027 7.3246384c1.4825745 4.689884 2.3154907 11.050735 2.3154907 17.683235l0 0c0 13.81147 -3.5394287 25.007874 -7.9055176 25.007874l0 0c-2.0966797 0 -4.107483 -2.6347504 -5.590027 -7.3246384c-1.4825745 -4.6898804 -2.3154907 -11.050735 -2.3154907 -17.683235z" fill-rule="evenodd"/><path stroke="#000000" stroke-width="1.0" stroke-linejoin="round" stroke-linecap="butt" d="m340.59055 76.00787l0 0c0 -13.811466 3.5394287 -25.007874 7.9055176 -25.007874l0 0c2.0966797 0 4.107483 2.6347504 5.590027 7.3246384c1.4825745 4.689884 2.3154907 11.050735 2.3154907 17.683235l0 0c0 13.81147 -3.5394287 25.007874 -7.9055176 25.007874l0 0c-2.0966797 0 -4.107483 -2.6347504 -5.590027 -7.3246384c-1.4825745 -4.6898804 -2.3154907 -11.050735 -2.3154907 -17.683235z" fill-rule="evenodd"/><path fill="#000000" d="m343.95288 76.01512l0 0c0 -10.454269 2.0376587 -18.929134 4.5512085 -18.929134l0 0c1.2070312 0 2.3646545 1.9943123 3.2181702 5.544216c0.8534851 3.5498962 1.3330078 8.364601 1.3330078 13.384918l0 0c0 10.454269 -2.0376587 18.92913 -4.551178 18.92913l0 0c-1.2070618 0 -2.364685 -1.9943085 -3.2181702 -5.5442123c-0.8535156 -3.5499039 -1.3330383 -8.364601 -1.3330383 -13.384918z" fill-rule="evenodd"/><path stroke="#000000" stroke-width="1.0" stroke-linejoin="round" stroke-linecap="butt" d="m343.95288 76.01512l0 0c0 -10.454269 2.0376587 -18.929134 4.5512085 -18.929134l0 0c1.2070312 0 2.3646545 1.9943123 3.2181702 5.544216c0.8534851 3.5498962 1.3330078 8.364601 1.3330078 13.384918l0 0c0 10.454269 -2.0376587 18.92913 -4.551178 18.92913l0 0c-1.2070618 0 -2.364685 -1.9943085 -3.2181702 -5.5442123c-0.8535156 -3.5499039 -1.3330383 -8.364601 -1.3330383 -13.384918z" fill-rule="evenodd"/><path fill="#ffffff" d="m185.10498 151.85564l0 0c0 -13.811462 11.414978 -25.007866 25.496063 -25.007866l0 0c6.761978 0 13.247009 2.6347427 18.028442 7.3246384c4.7814484 4.6898804 7.467621 11.050735 7.467621 17.683228l0 0c0 13.811478 -11.414963 25.007874 -25.496063 25.007874l0 0c-14.081085 0 -25.496063 -11.196396 -25.496063 -25.007874z" fill-rule="evenodd"/><path stroke="#000000" stroke-width="3.0" stroke-linejoin="round" stroke-linecap="butt" d="m185.10498 151.85564l0 0c0 -13.811462 11.414978 -25.007866 25.496063 -25.007866l0 0c6.761978 0 13.247009 2.6347427 18.028442 7.3246384c4.7814484 4.6898804 7.467621 11.050735 7.467621 17.683228l0 0c0 13.811478 -11.414963 25.007874 -25.496063 25.007874l0 0c-14.081085 0 -25.496063 -11.196396 -25.496063 -25.007874z" fill-rule="evenodd"/><path fill="#ff9900" d="m202.69554 151.85564l0 0c0 -13.811462 3.5394135 -25.007866 7.9055023 -25.007866l0 0c2.0966797 0 4.107483 2.6347427 5.590042 7.3246384c1.4825745 4.6898804 2.3154755 11.050735 2.3154755 17.683228l0 0c0 13.811478 -3.5394135 25.007874 -7.9055176 25.007874l0 0c-2.0966644 0 -4.1074677 -2.6347504 -5.590042 -7.3246307c-1.4825592 -4.6898804 -2.3154602 -11.050735 -2.3154602 -17.683243z" fill-rule="evenodd"/><path stroke="#000000" stroke-width="1.0" stroke-linejoin="round" stroke-linecap="butt" d="m202.69554 151.85564l0 0c0 -13.811462 3.5394135 -25.007866 7.9055023 -25.007866l0 0c2.0966797 0 4.107483 2.6347427 5.590042 7.3246384c1.4825745 4.6898804 2.3154755 11.050735 2.3154755 17.683228l0 0c0 13.811478 -3.5394135 25.007874 -7.9055176 25.007874l0 0c-2.0966644 0 -4.1074677 -2.6347504 -5.590042 -7.3246307c-1.4825592 -4.6898804 -2.3154602 -11.050735 -2.3154602 -17.683243z" fill-rule="evenodd"/><path fill="#000000" d="m206.05788 151.86288l0 0c0 -10.454269 2.0376434 -18.929123 4.551193 -18.929123l0 0c1.2070465 0 2.3646545 1.9943085 3.2181702 5.5442047c0.85350037 3.5499115 1.3330078 8.364609 1.3330078 13.384918l0 0c0 10.454285 -2.0376434 18.929138 -4.551178 18.929138l0 0c-1.2070618 0 -2.3646698 -1.9943085 -3.2181854 -5.54422c-0.85350037 -3.5498962 -1.3330078 -8.3645935 -1.3330078 -13.384918z" fill-rule="evenodd"/><path stroke="#000000" stroke-width="1.0" stroke-linejoin="round" stroke-linecap="butt" d="m206.05788 151.86288l0 0c0 -10.454269 2.0376434 -18.929123 4.551193 -18.929123l0 0c1.2070465 0 2.3646545 1.9943085 3.2181702 5.5442047c0.85350037 3.5499115 1.3330078 8.364609 1.3330078 13.384918l0 0c0 10.454285 -2.0376434 18.929138 -4.551178 18.929138l0 0c-1.2070618 0 -2.3646698 -1.9943085 -3.2181854 -5.54422c-0.85350037 -3.5498962 -1.3330078 -8.3645935 -1.3330078 -13.384918z" fill-rule="evenodd"/><path fill="#ffffff" d="m603.0 62.007874l0 0c0 -13.811466 11.414978 -25.007874 25.496033 -25.007874l0 0c6.762024 0 13.247009 2.6347504 18.028442 7.3246384c4.781494 4.689884 7.4676514 11.050735 7.4676514 17.683235l0 0c0 13.81147 -11.414978 25.007874 -25.496094 25.007874l0 0c-14.081055 0 -25.496033 -11.1964035 -25.496033 -25.007874z" fill-rule="evenodd"/><path stroke="#000000" stroke-width="3.0" stroke-linejoin="round" stroke-linecap="butt" d="m603.0 62.007874l0 0c0 -13.811466 11.414978 -25.007874 25.496033 -25.007874l0 0c6.762024 0 13.247009 2.6347504 18.028442 7.3246384c4.781494 4.689884 7.4676514 11.050735 7.4676514 17.683235l0 0c0 13.81147 -11.414978 25.007874 -25.496094 25.007874l0 0c-14.081055 0 -25.496033 -11.1964035 -25.496033 -25.007874z" fill-rule="evenodd"/><path fill="#ff9900" d="m620.5906 62.007874l0 0c0 -13.811466 3.5393677 -25.007874 7.9054565 -25.007874l0 0c2.0966797 0 4.107483 2.6347504 5.590088 7.3246384c1.482544 4.689884 2.3154297 11.050735 2.3154297 17.683235l0 0c0 13.81147 -3.5393677 25.007874 -7.9055176 25.007874l0 0c-2.0966187 0 -4.107422 -2.6347504 -5.590027 -7.3246384c-1.482544 -4.6898804 -2.3154297 -11.050735 -2.3154297 -17.683235z" fill-rule="evenodd"/><path stroke="#000000" stroke-width="1.0" stroke-linejoin="round" stroke-linecap="butt" d="m620.5906 62.007874l0 0c0 -13.811466 3.5393677 -25.007874 7.9054565 -25.007874l0 0c2.0966797 0 4.107483 2.6347504 5.590088 7.3246384c1.482544 4.689884 2.3154297 11.050735 2.3154297 17.683235l0 0c0 13.81147 -3.5393677 25.007874 -7.9055176 25.007874l0 0c-2.0966187 0 -4.107422 -2.6347504 -5.590027 -7.3246384c-1.482544 -4.6898804 -2.3154297 -11.050735 -2.3154297 -17.683235z" fill-rule="evenodd"/><path fill="#000000" d="m623.9529 62.01512l0 0c0 -10.454273 2.0376587 -18.929134 4.5512085 -18.929134l0 0c1.2070312 0 2.364624 1.9943123 3.2181396 5.544216c0.8535156 3.5499 1.3330078 8.364601 1.3330078 13.384918l0 0c0 10.454269 -2.0375977 18.92913 -4.5511475 18.92913l0 0c-1.2070923 0 -2.364685 -1.9943085 -3.2182007 -5.5442123c-0.8535156 -3.5499039 -1.3330078 -8.364601 -1.3330078 -13.384918z" fill-rule="evenodd"/><path stroke="#000000" stroke-width="1.0" stroke-linejoin="round" stroke-linecap="butt" d="m623.9529 62.01512l0 0c0 -10.454273 2.0376587 -18.929134 4.5512085 -18.929134l0 0c1.2070312 0 2.364624 1.9943123 3.2181396 5.544216c0.8535156 3.5499 1.3330078 8.364601 1.3330078 13.384918l0 0c0 10.454269 -2.0375977 18.92913 -4.5511475 18.92913l0 0c-1.2070923 0 -2.364685 -1.9943085 -3.2182007 -5.5442123c-0.8535156 -3.5499039 -1.3330078 -8.364601 -1.3330078 -13.384918z" fill-rule="evenodd"/><path fill="#ffffff" d="m785.0 303.96326l0 0c0 -13.811462 11.414978 -25.007874 25.496033 -25.007874l0 0c6.762024 0 13.247009 2.634735 18.028442 7.324646c4.781494 4.6898804 7.4676514 11.05072 7.4676514 17.683228l0 0c0 13.811462 -11.414978 25.007874 -25.496094 25.007874l0 0c-14.081055 0 -25.496033 -11.196411 -25.496033 -25.007874z" fill-rule="evenodd"/><path stroke="#000000" stroke-width="3.0" stroke-linejoin="round" stroke-linecap="butt" d="m785.0 303.96326l0 0c0 -13.811462 11.414978 -25.007874 25.496033 -25.007874l0 0c6.762024 0 13.247009 2.634735 18.028442 7.324646c4.781494 4.6898804 7.4676514 11.05072 7.4676514 17.683228l0 0c0 13.811462 -11.414978 25.007874 -25.496094 25.007874l0 0c-14.081055 0 -25.496033 -11.196411 -25.496033 -25.007874z" fill-rule="evenodd"/><path fill="#ff9900" d="m802.5906 303.96326l0 0c0 -13.811462 3.5393677 -25.007874 7.9054565 -25.007874l0 0c2.0966797 0 4.107483 2.634735 5.590088 7.324646c1.482544 4.6898804 2.3154297 11.05072 2.3154297 17.683228l0 0c0 13.811462 -3.5393677 25.007874 -7.9055176 25.007874l0 0c-2.0966187 0 -4.107422 -2.6347656 -5.590027 -7.324646c-1.482544 -4.6898804 -2.3154297 -11.05072 -2.3154297 -17.683228z" fill-rule="evenodd"/><path stroke="#000000" stroke-width="1.0" stroke-linejoin="round" stroke-linecap="butt" d="m802.5906 303.96326l0 0c0 -13.811462 3.5393677 -25.007874 7.9054565 -25.007874l0 0c2.0966797 0 4.107483 2.634735 5.590088 7.324646c1.482544 4.6898804 2.3154297 11.05072 2.3154297 17.683228l0 0c0 13.811462 -3.5393677 25.007874 -7.9055176 25.007874l0 0c-2.0966187 0 -4.107422 -2.6347656 -5.590027 -7.324646c-1.482544 -4.6898804 -2.3154297 -11.05072 -2.3154297 -17.683228z" fill-rule="evenodd"/><path fill="#000000" d="m805.9529 303.9705l0 0c0 -10.454254 2.0376587 -18.929108 4.5512085 -18.929108l0 0c1.2070312 0 2.364624 1.9942932 3.2181396 5.5441895c0.8535156 3.5499268 1.3330078 8.364624 1.3330078 13.384918l0 0c0 10.454285 -2.0375977 18.929138 -4.5511475 18.929138l0 0c-1.2070923 0 -2.364685 -1.9942932 -3.2182007 -5.54422c-0.8535156 -3.5498962 -1.3330078 -8.3645935 -1.3330078 -13.384918z" fill-rule="evenodd"/><path stroke="#000000" stroke-width="1.0" stroke-linejoin="round" stroke-linecap="butt" d="m805.9529 303.9705l0 0c0 -10.454254 2.0376587 -18.929108 4.5512085 -18.929108l0 0c1.2070312 0 2.364624 1.9942932 3.2181396 5.5441895c0.8535156 3.5499268 1.3330078 8.364624 1.3330078 13.384918l0 0c0 10.454285 -2.0375977 18.929138 -4.5511475 18.929138l0 0c-1.2070923 0 -2.364685 -1.9942932 -3.2182007 -5.54422c-0.8535156 -3.5498962 -1.3330078 -8.3645935 -1.3330078 -13.384918z" fill-rule="evenodd"/><path fill="#ffffff" d="m724.0 533.0079l0 0c0 -13.811462 11.414978 -25.007874 25.496033 -25.007874l0 0c6.762024 0 13.247009 2.6347656 18.028442 7.324646c4.781494 4.6898804 7.4676514 11.05072 7.4676514 17.683228l0 0c0 13.811462 -11.414978 25.007874 -25.496094 25.007874l0 0c-14.081055 0 -25.496033 -11.196411 -25.496033 -25.007874z" fill-rule="evenodd"/><path stroke="#000000" stroke-width="3.0" stroke-linejoin="round" stroke-linecap="butt" d="m724.0 533.0079l0 0c0 -13.811462 11.414978 -25.007874 25.496033 -25.007874l0 0c6.762024 0 13.247009 2.6347656 18.028442 7.324646c4.781494 4.6898804 7.4676514 11.05072 7.4676514 17.683228l0 0c0 13.811462 -11.414978 25.007874 -25.496094 25.007874l0 0c-14.081055 0 -25.496033 -11.196411 -25.496033 -25.007874z" fill-rule="evenodd"/><path fill="#ff9900" d="m741.5906 533.0079l0 0c0 -13.811462 3.5393677 -25.007874 7.9054565 -25.007874l0 0c2.0966797 0 4.107483 2.6347656 5.590088 7.324646c1.482544 4.6898804 2.3154297 11.05072 2.3154297 17.683228l0 0c0 13.811462 -3.5393677 25.007874 -7.9055176 25.007874l0 0c-2.0966187 0 -4.107422 -2.6347656 -5.590027 -7.324646c-1.482544 -4.6898804 -2.3154297 -11.05072 -2.3154297 -17.683228z" fill-rule="evenodd"/><path stroke="#000000" stroke-width="1.0" stroke-linejoin="round" stroke-linecap="butt" d="m741.5906 533.0079l0 0c0 -13.811462 3.5393677 -25.007874 7.9054565 -25.007874l0 0c2.0966797 0 4.107483 2.6347656 5.590088 7.324646c1.482544 4.6898804 2.3154297 11.05072 2.3154297 17.683228l0 0c0 13.811462 -3.5393677 25.007874 -7.9055176 25.007874l0 0c-2.0966187 0 -4.107422 -2.6347656 -5.590027 -7.324646c-1.482544 -4.6898804 -2.3154297 -11.05072 -2.3154297 -17.683228z" fill-rule="evenodd"/><path fill="#000000" d="m744.9529 533.01514l0 0c0 -10.454285 2.0376587 -18.929138 4.5512085 -18.929138l0 0c1.2070312 0 2.364624 1.9943237 3.2181396 5.5441895c0.8535156 3.5499268 1.3330078 8.364624 1.3330078 13.384949l0 0c0 10.454285 -2.0375977 18.929138 -4.5511475 18.929138l0 0c-1.2070923 0 -2.364685 -1.9943237 -3.2182007 -5.5442505c-0.8535156 -3.5498657 -1.3330078 -8.364563 -1.3330078 -13.384888z" fill-rule="evenodd"/><path stroke="#000000" stroke-width="1.0" stroke-linejoin="round" stroke-linecap="butt" d="m744.9529 533.01514l0 0c0 -10.454285 2.0376587 -18.929138 4.5512085 -18.929138l0 0c1.2070312 0 2.364624 1.9943237 3.2181396 5.5441895c0.8535156 3.5499268 1.3330078 8.364624 1.3330078 13.384949l0 0c0 10.454285 -2.0375977 18.929138 -4.5511475 18.929138l0 0c-1.2070923 0 -2.364685 -1.9943237 -3.2182007 -5.5442505c-0.8535156 -3.5498657 -1.3330078 -8.364563 -1.3330078 -13.384888z" fill-rule="evenodd"/><path fill="#ffffff" d="m176.0 533.0079l0 0c0 -13.811462 11.414978 -25.007874 25.496063 -25.007874l0 0c6.761978 0 13.246994 2.6347656 18.028442 7.324646c4.781433 4.6898804 7.467621 11.05072 7.467621 17.683228l0 0c0 13.811462 -11.414978 25.007874 -25.496063 25.007874l0 0c-14.081085 0 -25.496063 -11.196411 -25.496063 -25.007874z" fill-rule="evenodd"/><path stroke="#000000" stroke-width="3.0" stroke-linejoin="round" stroke-linecap="butt" d="m176.0 533.0079l0 0c0 -13.811462 11.414978 -25.007874 25.496063 -25.007874l0 0c6.761978 0 13.246994 2.6347656 18.028442 7.324646c4.781433 4.6898804 7.467621 11.05072 7.467621 17.683228l0 0c0 13.811462 -11.414978 25.007874 -25.496063 25.007874l0 0c-14.081085 0 -25.496063 -11.196411 -25.496063 -25.007874z" fill-rule="evenodd"/><path fill="#ff9900" d="m193.59055 533.0079l0 0c0 -13.811462 3.5394287 -25.007874 7.9055176 -25.007874l0 0c2.0966644 0 4.1074677 2.6347656 5.590042 7.324646c1.4825745 4.6898804 2.3154755 11.05072 2.3154755 17.683228l0 0c0 13.811462 -3.5394287 25.007874 -7.9055176 25.007874l0 0c-2.0966797 0 -4.1074677 -2.6347656 -5.590042 -7.324646c-1.4825745 -4.6898804 -2.3154755 -11.05072 -2.3154755 -17.683228z" fill-rule="evenodd"/><path stroke="#000000" stroke-width="1.0" stroke-linejoin="round" stroke-linecap="butt" d="m193.59055 533.0079l0 0c0 -13.811462 3.5394287 -25.007874 7.9055176 -25.007874l0 0c2.0966644 0 4.1074677 2.6347656 5.590042 7.324646c1.4825745 4.6898804 2.3154755 11.05072 2.3154755 17.683228l0 0c0 13.811462 -3.5394287 25.007874 -7.9055176 25.007874l0 0c-2.0966797 0 -4.1074677 -2.6347656 -5.590042 -7.324646c-1.4825745 -4.6898804 -2.3154755 -11.05072 -2.3154755 -17.683228z" fill-rule="evenodd"/><path fill="#000000" d="m196.9529 533.01514l0 0c0 -10.454285 2.0376282 -18.929138 4.551178 -18.929138l0 0c1.2070465 0 2.3646545 1.9943237 3.2181702 5.5441895c0.8535156 3.5499268 1.3330078 8.364624 1.3330078 13.384949l0 0c0 10.454285 -2.0376282 18.929138 -4.551178 18.929138l0 0c-1.2070465 0 -2.3646545 -1.9943237 -3.2181702 -5.5442505c-0.8535156 -3.5498657 -1.3330078 -8.364563 -1.3330078 -13.384888z" fill-rule="evenodd"/><path stroke="#000000" stroke-width="1.0" stroke-linejoin="round" stroke-linecap="butt" d="m196.9529 533.01514l0 0c0 -10.454285 2.0376282 -18.929138 4.551178 -18.929138l0 0c1.2070465 0 2.3646545 1.9943237 3.2181702 5.5441895c0.8535156 3.5499268 1.3330078 8.364624 1.3330078 13.384949l0 0c0 10.454285 -2.0376282 18.929138 -4.551178 18.929138l0 0c-1.2070465 0 -2.3646545 -1.9943237 -3.2181702 -5.5442505c-0.8535156 -3.5498657 -1.3330078 -8.364563 -1.3330078 -13.384888z" fill-rule="evenodd"/><path fill="#ffffff" d="m118.0 388.31235l0 0c0 -13.811493 11.414978 -25.007874 25.496063 -25.007874l0 0c6.761978 0 13.246994 2.634735 18.028442 7.3246155c4.781433 4.6898804 7.467621 11.050751 7.467621 17.683258l0 0c0 13.811462 -11.414978 25.007874 -25.496063 25.007874l0 0c-14.081085 0 -25.496063 -11.196411 -25.496063 -25.007874z" fill-rule="evenodd"/><path stroke="#000000" stroke-width="3.0" stroke-linejoin="round" stroke-linecap="butt" d="m118.0 388.31235l0 0c0 -13.811493 11.414978 -25.007874 25.496063 -25.007874l0 0c6.761978 0 13.246994 2.634735 18.028442 7.3246155c4.781433 4.6898804 7.467621 11.050751 7.467621 17.683258l0 0c0 13.811462 -11.414978 25.007874 -25.496063 25.007874l0 0c-14.081085 0 -25.496063 -11.196411 -25.496063 -25.007874z" fill-rule="evenodd"/><path fill="#ff9900" d="m135.59055 388.31235l0 0c0 -13.811493 3.5394287 -25.007874 7.9055176 -25.007874l0 0c2.0966644 0 4.1074677 2.634735 5.590042 7.3246155c1.4825745 4.6898804 2.3154755 11.050751 2.3154755 17.683258l0 0c0 13.811462 -3.5394287 25.007874 -7.9055176 25.007874l0 0c-2.0966797 0 -4.1074677 -2.6347656 -5.590042 -7.324646c-1.4825745 -4.6898804 -2.3154755 -11.050751 -2.3154755 -17.683228z" fill-rule="evenodd"/><path stroke="#000000" stroke-width="1.0" stroke-linejoin="round" stroke-linecap="butt" d="m135.59055 388.31235l0 0c0 -13.811493 3.5394287 -25.007874 7.9055176 -25.007874l0 0c2.0966644 0 4.1074677 2.634735 5.590042 7.3246155c1.4825745 4.6898804 2.3154755 11.050751 2.3154755 17.683258l0 0c0 13.811462 -3.5394287 25.007874 -7.9055176 25.007874l0 0c-2.0966797 0 -4.1074677 -2.6347656 -5.590042 -7.324646c-1.4825745 -4.6898804 -2.3154755 -11.050751 -2.3154755 -17.683228z" fill-rule="evenodd"/><path fill="#000000" d="m138.9529 388.31958l0 0c0 -10.454254 2.0376282 -18.929138 4.551178 -18.929138l0 0c1.2070465 0 2.3646545 1.9943237 3.2181702 5.54422c0.8535156 3.5498962 1.3330078 8.3645935 1.3330078 13.384918l0 0c0 10.454285 -2.0376282 18.929138 -4.551178 18.929138l0 0c-1.2070465 0 -2.3646545 -1.9943237 -3.2181702 -5.54422c-0.8535156 -3.5498962 -1.3330078 -8.3645935 -1.3330078 -13.384918z" fill-rule="evenodd"/><path stroke="#000000" stroke-width="1.0" stroke-linejoin="round" stroke-linecap="butt" d="m138.9529 388.31958l0 0c0 -10.454254 2.0376282 -18.929138 4.551178 -18.929138l0 0c1.2070465 0 2.3646545 1.9943237 3.2181702 5.54422c0.8535156 3.5498962 1.3330078 8.3645935 1.3330078 13.384918l0 0c0 10.454285 -2.0376282 18.929138 -4.551178 18.929138l0 0c-1.2070465 0 -2.3646545 -1.9943237 -3.2181702 -5.54422c-0.8535156 -3.5498962 -1.3330078 -8.3645935 -1.3330078 -13.384918z" fill-rule="evenodd"/></g></svg>